<svg xmlns="http://www.w3.org/2000/svg" xmlns:xlink="http://www.w3.org/1999/xlink" width="14px" height="14px" viewBox="0 0 14 12" version="1.1">
    <g id="PWA" stroke="none" stroke-width="1" fill="#000" fill-rule="evenodd" opacity="0.746791295">
        <g id="ADPV-V1.1-" transform="translate(-146.000000, -420.000000)" fill="#002F34">
            <g id="element/icon/millage/thin-copy-3" transform="translate(146.000000, 420.000000)">
                <path d="M7.00017142,0.333333333 C10.6763162,0.333333333 13.6666667,3.3380404 13.6666667,7.03167677 C13.6666667,8.49539394 13.4865004,10.1727273 12.1490989,11.515899 L12.1490989,11.515899 L11.7863731,11.6666667 L2.2139697,11.6666667 L1.85090212,11.5152121 C0.513158737,10.1668889 0.33299243,8.49161616 0.333333817,7.0309899 C0.333676173,3.33769697 3.32471037,0.333333333 7.00017142,0.333333333 Z M7.00017142,1.36363636 C3.88982405,1.36363636 1.35929083,3.90608081 1.35894868,7.0309899 C1.35860708,8.72480808 1.67244517,9.78876768 2.43413498,10.6363636 L2.43413498,10.6363636 L11.5668916,10.6363636 C12.3275558,9.79254545 12.641052,8.72824242 12.641052,7.03167677 C12.641052,3.90608081 10.1105188,1.36363636 7.00017142,1.36363636 Z M10.4189211,3.59729899 L10.4189211,4.32057172 L10.0958525,4.64546061 L10.0979037,4.64717778 L8.64050531,6.11089495 C8.79298002,6.38358182 8.88049914,6.69748081 8.88049914,7.03164242 C8.88049914,8.07293535 8.03710202,8.92053131 7.00020561,8.92053131 C5.96330919,8.92053131 5.11991208,8.07293535 5.11991208,7.03164242 C5.11991208,5.99034949 5.96330919,5.14275354 7.00020561,5.14275354 C7.33216288,5.14275354 7.64394974,5.23067273 7.91505388,5.38281414 L7.91505388,5.38281414 L9.3724523,3.91875354 L9.37587102,3.92150101 L9.69893963,3.59729899 L10.4189211,3.59729899 Z M7.00020561,6.17305657 C6.52910661,6.17305657 6.14552673,6.55804646 6.14552673,7.03164242 C6.14552673,7.50523838 6.52910661,7.89022828 7.00020561,7.89022828 C7.4713046,7.89022828 7.85488448,7.50523838 7.85488448,7.03164242 C7.85488448,6.55804646 7.4713046,6.17305657 7.00020561,6.17305657 Z" id="Combined-Shape"/>
            </g>
        </g>
    </g>
</svg>