<?xml version="1.0" encoding="UTF-8"?>
<svg width="24px" height="24px" viewBox="0 0 24 24" version="1.1" xmlns="http://www.w3.org/2000/svg" xmlns:xlink="http://www.w3.org/1999/xlink">
    <title>element/icon/calendar/thin copy 3@1x</title>
    <defs>
        <rect id="path-1" x="0" y="0" width="24" height="24"></rect>
    </defs>
    <g id="PWA" stroke="none" stroke-width="1" fill="none" fill-rule="evenodd">
        <g id="ADPV-V1.1-" transform="translate(-25.000000, -559.000000)">
            <g id="element/icon/calendar/thin-copy-3" transform="translate(25.000000, 559.000000)">
                <mask id="mask-2" fill="white">
                    <use xlink:href="#path-1"></use>
                </mask>
                <g id="Mask"></g>
                <g mask="url(#mask-2)" fill="#002F34" id="Combined-Shape">
                    <g transform="translate(4.000000, 3.000000)">
                        <path d="M4.55315668,0.666666667 L4.55315668,1.72151899 L11.4610655,1.72151899 L11.4610655,0.666666667 L12.6801082,0.666666667 L12.6801082,1.72151899 L15.3071453,1.72151899 L15.9166667,2.35443038 L15.9166667,16.7004219 L15.3071453,17.3333333 L0.692854699,17.3333333 L0.0833333333,16.7004219 L0.0833333333,2.35443038 L0.692854699,1.72151899 L3.33411395,1.72151899 L3.33411395,0.666666667 L4.55315668,0.666666667 Z M14.6976239,7.20675105 L1.30237606,7.20675105 L1.30237606,16.0675105 L14.6976239,16.0675105 L14.6976239,7.20675105 Z M4.35002353,9.42185654 C4.85511356,9.42185654 5.26430557,9.847173 5.26430557,10.3712236 C5.26430557,10.8956962 4.85511356,11.3205907 4.35002353,11.3205907 C3.84493349,11.3205907 3.43574148,10.8956962 3.43574148,10.3712236 C3.43574148,9.847173 3.84493349,9.42185654 4.35002353,9.42185654 Z M3.33411395,2.98734177 L1.30237606,2.98734177 L1.30237606,5.94092827 L14.6976239,5.94092827 L14.6976239,2.98734177 L12.6801082,2.98734177 L12.6801082,4.25316456 L12.0705869,4.88607595 L11.4614718,4.25316456 L11.4614718,4.04219409 L11.4610655,4.04219409 L11.4610655,2.98734177 L4.55315668,2.98734177 L4.55315668,4.25316456 L3.94404166,4.88607595 L3.33411395,4.25316456 L3.33411395,2.98734177 Z"></path>
                    </g>
                </g>
            </g>
        </g>
    </g>
</svg>