<svg xmlns="http://www.w3.org/2000/svg" width="24px" height="24px" viewBox="0 0 24 24" version="1.1">
    <g id="PWA" stroke="none" stroke-width="1" fill="none" fill-rule="evenodd">
        <g id="ADPV-V1.1-" transform="translate(-137.000000, -473.000000)">
            <g id="Icons/ic_pinfilled-Copy" transform="translate(137.000000, 473.000000)">
                <g id="Group-2">
                    <path d="M12,2 C16.9628571,2 21,5.97468354 21,10.8607595 C21,15.6977215 15.4837714,20.3488608 13.3016571,22 L13.3016571,22 L10.6988571,22 C8.51674286,20.3488608 3,15.6977215 3,10.8607595 C3,5.97468354 7.03765714,2 12,2 Z M12,3.51898734 C7.88828571,3.51898734 4.54285714,6.8121519 4.54285714,10.8607595 C4.54285714,15.2632911 10.3419429,19.8425316 12,21.0612658 C13.6575429,19.8410127 19.4571429,15.2562025 19.4571429,10.8607595 C19.4571429,6.8121519 16.1122286,3.51898734 12,3.51898734 Z M12.0002571,7.06303797 C14.1273429,7.06303797 15.8574,8.76632911 15.8574,10.8605063 C15.8574,12.9546835 14.1273429,14.6579747 12.0002571,14.6579747 C9.87317143,14.6579747 8.14311429,12.9546835 8.14311429,10.8605063 C8.14311429,8.76632911 9.87317143,7.06303797 12.0002571,7.06303797 Z M12.0002571,8.58202532 C10.7243143,8.58202532 9.68597143,9.6043038 9.68597143,10.8605063 C9.68597143,12.1167089 10.7243143,13.1389873 12.0002571,13.1389873 C13.2762,13.1389873 14.3145429,12.1167089 14.3145429,10.8605063 C14.3145429,9.6043038 13.2762,8.58202532 12.0002571,8.58202532 Z" id="Combined-Shape" fill="#002F34"/>
                    <rect id="Rectangle" x="0" y="0" width="24" height="24"/>
                </g>
            </g>
        </g>
    </g>
</svg>