<svg width="26px" height="26px" viewBox="0 0 1024 1024" data-aut-id="icon"  fill-rule="evenodd"><path d="M784.555 852.395c-331.435-14.635-598.315-281.515-612.949-612.949l149.973-59.989 91.691 183.424-70.997 35.499v26.453c0 141.653 115.243 256.896 256.896 256.896h26.453l11.861-23.637 23.68-47.36 183.381 91.733-59.989 149.931zM918.101 643.456l-256.939-128.469-57.472 19.2-30.037 60.032c-74.069-11.093-132.736-69.803-143.872-143.872l60.075-30.037 19.157-57.429-128.427-256.939-54.187-20.608-214.187 85.632-26.88 39.808c0 401.365 326.571 727.893 727.936 727.893l39.765-26.88 85.632-214.187-20.608-54.187z"></path></svg>